<?xml version="1.0" standalone="no"?>
<!DOCTYPE svg PUBLIC "-//W3C//DTD SVG 20010904//EN"
 "http://www.w3.org/TR/2001/REC-SVG-20010904/DTD/svg10.dtd">
<svg version="1.0" xmlns="http://www.w3.org/2000/svg"
 width="24.000000pt" height="24.000000pt" viewBox="0 0 24.000000 24.000000"
 preserveAspectRatio="xMidYMid meet">

<g transform="translate(0.000000,24.000000) scale(0.100000,-0.100000)"
fill="#000000" stroke="none">
<path d="M0 120 l0 -120 65 0 65 0 0 45 c0 33 -4 45 -15 45 -8 0 -15 9 -15 20
0 11 7 20 15 20 9 0 15 9 15 23 0 13 5 28 12 35 17 17 58 15 58 -3 0 -8 -7
-15 -15 -15 -8 0 -15 -9 -15 -20 0 -11 7 -20 15 -20 8 0 15 -9 15 -20 0 -11
-7 -20 -15 -20 -11 0 -15 -12 -15 -45 0 -45 0 -45 35 -45 l35 0 0 120 0 120
-120 0 -120 0 0 -120z"/>
</g>
</svg>
