<?xml version="1.0" standalone="no"?>
<!DOCTYPE svg PUBLIC "-//W3C//DTD SVG 20010904//EN"
 "http://www.w3.org/TR/2001/REC-SVG-20010904/DTD/svg10.dtd">
<svg version="1.0" xmlns="http://www.w3.org/2000/svg"
 width="30.000000pt" height="30.000000pt" viewBox="0 0 30.000000 30.000000"
 preserveAspectRatio="xMidYMid meet">

<g transform="translate(0.000000,30.000000) scale(0.100000,-0.100000)"
fill="#000000" stroke="none">
<path d="M70 253 c-44 -9 -50 -21 -50 -103 0 -60 4 -81 17 -91 23 -19 203 -19
226 0 23 18 24 162 2 181 -15 13 -153 22 -195 13z m91 -80 c16 -10 29 -20 29
-23 0 -6 -54 -40 -64 -40 -3 0 -6 18 -6 40 0 46 1 46 41 23z"/>
</g>
</svg>
